<svg xmlns="http://www.w3.org/2000/svg" xmlns:xlink="http://www.w3.org/1999/xlink" viewBox="0 0 519.76 519.76"><defs><style>.cls-1{fill:none;}.cls-2{isolation:isolate;}.cls-3{fill:#fff;}.cls-4,.cls-8{fill:#e6e8e6;}.cls-5,.cls-7{mix-blend-mode:multiply;}.cls-6,.cls-7,.cls-9{fill:#20335f;}.cls-8{mix-blend-mode:screen;opacity:0.37;}.cls-12,.cls-9{font-size:50.08px;}.cls-10,.cls-12,.cls-9{font-family:Congenial-Medium, Congenial;font-weight:500;}.cls-10{font-size:94.09px;}.cls-10,.cls-17{fill:#ae9f6b;}.cls-11{letter-spacing:-0.02em;}.cls-12,.cls-16{fill:#e62a28;}.cls-12{letter-spacing:-0.02em;}.cls-13{letter-spacing:0em;}.cls-14{fill:#e7e8e6;}.cls-15{clip-path:url(#clip-path);}</style><clipPath id="clip-path"><circle class="cls-1" cx="260.92" cy="259.88" r="252.9"/></clipPath></defs><g class="cls-2"><g id="Capa_2" data-name="Capa 2"><g id="Capa_11" data-name="Capa 11"><circle class="cls-3" cx="259.88" cy="259.88" r="259.88"/><circle class="cls-4" cx="259.88" cy="259.88" r="252.9"/><g class="cls-5"><path class="cls-6" d="M315.91,78.24c.21,6.52.3,13,.45,19.54l.26,19.54c.17,13,.2,26,.22,39.07s0,26-.21,39.07L316.37,215c-.16,6.51-.25,13-.46,19.54-.21-6.51-.3-13-.46-19.54l-.26-19.53c-.16-13-.19-26.05-.21-39.07s0-26,.22-39.07l.26-19.54C315.61,91.27,315.7,84.76,315.91,78.24Z"/><path class="cls-6" d="M315.91,78.24q-16.43,5.76-33,11.18c-5.5,1.83-11,3.6-16.55,5.39l-16.57,5.29-16.61,5.2c-5.55,1.7-11.08,3.43-16.64,5.1q-16.65,5.07-33.41,9.79,16.44-5.76,33-11.18c5.51-1.83,11-3.59,16.55-5.39l16.58-5.29,16.61-5.19c5.54-1.7,11.08-3.43,16.64-5.1Q299.15,83,315.91,78.24Z"/><path class="cls-6" d="M356.88,94.21c-4.53-1.82-9.05-3.67-13.6-5.45q-13.62-5.43-27.37-10.52,13.33,6.09,26.82,11.86c4.48,1.94,9,3.82,13.48,5.73l13.53,5.64,4.31,1.76a3.18,3.18,0,0,1,.81-1.64l-4.41-1.84Z"/><path class="cls-6" d="M248,101.38c3.94-1.52,7.93-2.87,12-4.16,2-.66,4-1.26,6-1.89l6.06-1.78,6.08-1.69c2-.53,4.07-1.09,6.12-1.59,4.09-1,8.19-2,12.35-2.77-3.94,1.53-7.94,2.88-11.95,4.17-2,.66-4,1.25-6,1.88l-6.06,1.79L266.5,97c-2,.53-4.07,1.09-6.12,1.59C256.3,99.63,252.19,100.6,248,101.38Z"/><path class="cls-6" d="M297.4,133.39c-.45-3.82-.72-7.64-.92-11.46-.11-1.91-.17-3.82-.25-5.73l-.15-5.74,0-5.74c0-1.91,0-3.82,0-5.74.08-3.82.21-7.65.54-11.48.45,3.82.72,7.64.92,11.46.12,1.91.16,3.82.25,5.73l.14,5.74.05,5.74c0,1.91,0,3.82-.06,5.74C297.86,125.73,297.72,129.56,297.4,133.39Z"/><path class="cls-6" d="M297.4,133.39c-4,1.34-8,2.5-12.08,3.6-2,.56-4.06,1.06-6.08,1.59l-6.12,1.5-6.13,1.4c-2.05.43-4.1.9-6.16,1.29-4.11.84-8.24,1.6-12.41,2.19,4-1.34,8-2.5,12.08-3.6,2-.56,4.06-1.06,6.09-1.6l6.11-1.49,6.13-1.4c2.05-.43,4.1-.89,6.16-1.29C289.1,134.75,293.23,134,297.4,133.39Z"/><path class="cls-6" d="M248.42,145c-.41-3.63-.65-7.26-.82-10.89-.1-1.81-.13-3.63-.2-5.44l-.1-5.45v-5.45c0-1.81,0-3.63.11-5.45.1-3.63.27-7.26.63-10.9.42,3.63.65,7.26.82,10.89.1,1.82.13,3.63.2,5.45l.1,5.44v5.45c0,1.82,0,3.63-.11,5.45C248.94,137.69,248.78,141.33,248.42,145Z"/><path class="cls-6" d="M235.7,146.89c-.42-3.37-.65-6.74-.82-10.12-.11-1.68-.14-3.37-.21-5.06l-.1-5.06v-5.06c0-1.69,0-3.38.11-5.06.11-3.38.28-6.76.63-10.13.42,3.37.65,6.74.82,10.11.11,1.69.14,3.38.21,5.06l.09,5.06v5.07c0,1.68,0,3.37-.11,5.06C236.22,140.13,236.05,143.51,235.7,146.89Z"/><path class="cls-6" d="M235.31,106.4c-3.13,1.37-6.31,2.57-9.52,3.7-1.59.59-3.21,1.11-4.81,1.66l-4.85,1.56-4.88,1.46c-1.64.45-3.27.94-4.92,1.36-3.28.87-6.58,1.69-9.94,2.32,3.13-1.37,6.31-2.57,9.51-3.71,1.6-.58,3.22-1.1,4.82-1.65l4.85-1.56,4.89-1.46c1.63-.45,3.26-.94,4.91-1.36C228.65,107.85,232,107,235.31,106.4Z"/><path class="cls-6" d="M196.39,118.46c.41,3,.65,6,.81,8.93.1,1.49.14,3,.2,4.47l.1,4.47v4.47c0,1.49,0,3-.11,4.47-.1,3-.28,6-.63,8.95-.42-3-.65-6-.82-8.94-.1-1.48-.13-3-.2-4.46l-.09-4.47v-4.47c0-1.49,0-3,.12-4.47C195.86,124.43,196,121.45,196.39,118.46Z"/><path class="cls-6" d="M196.75,154.22c3.17-1,6.38-1.8,9.6-2.55,1.61-.39,3.23-.71,4.84-1.07l4.86-1,4.88-.87c1.63-.25,3.26-.54,4.89-.76,3.28-.48,6.56-.89,9.88-1.12-3.18,1-6.39,1.8-9.61,2.54-1.6.39-3.22.72-4.84,1.07l-4.86,1-4.87.86c-1.64.26-3.26.54-4.9.76C203.35,153.57,200.06,154,196.75,154.22Z"/><path class="cls-6" d="M325.55,59.35a7.71,7.71,0,0,1,.73,2.22,11.72,11.72,0,0,1,.2,2.21,11.9,11.9,0,0,1-.2,2.22,7.71,7.71,0,0,1-.73,2.22,7.71,7.71,0,0,1-.73-2.22,11.9,11.9,0,0,1-.2-2.22,12.61,12.61,0,0,1,.2-2.21A8.37,8.37,0,0,1,325.55,59.35Z"/><path class="cls-6" d="M325.55,68.22c-6.09,2.21-12.21,4.3-18.32,6.45L288.85,81C276.59,85.13,264.29,89.16,252,93.2s-24.63,8-37,11.85l-18.55,5.78c-6.2,1.86-12.38,3.79-18.6,5.59,6.09-2.21,12.21-4.3,18.32-6.46l18.38-6.27c12.26-4.18,24.56-8.22,36.86-12.25s24.63-8,37-11.85L307,73.81C313.15,72,319.33,70,325.55,68.22Z"/><path class="cls-6" d="M325.55,59.35c-6.11,2.33-12.27,4.54-18.4,6.81L288.68,72.8c-12.31,4.41-24.67,8.7-37,13s-24.76,8.47-37.18,12.57l-18.64,6.14c-6.23,2-12.44,4-18.7,6,6.12-2.33,12.27-4.55,18.41-6.82L214,97c12.32-4.41,24.68-8.69,37-13s24.75-8.47,37.17-12.57l18.64-6.14C313.09,63.32,319.3,61.28,325.55,59.35Z"/><path class="cls-6" d="M373.64,89.87l-5.49-2.56c-4.71-2.17-9.41-4.36-14.14-6.49q-14.14-6.46-28.46-12.6,13.84,7.11,27.84,13.91c4.66,2.29,9.34,4.51,14,6.77l5.45,2.58A3.18,3.18,0,0,1,373.64,89.87Z"/><path class="cls-6" d="M382.72,85l-14-6.47c-4.78-2.17-9.54-4.37-14.34-6.51Q340,65.51,325.55,59.35q14,7.14,28.23,14c4.72,2.29,9.47,4.53,14.21,6.79l13.43,6.32A2.89,2.89,0,0,1,382.72,85Z"/><path class="cls-6" d="M391.84,77,386.1,74l-13.94-7.39-14-7.3c-4.68-2.4-9.34-4.83-14-7.2q-14-7.19-28.25-14.05,13.71,7.83,27.57,15.33c4.61,2.53,9.26,5,13.89,7.48l13.93,7.39,14,7.29,5.08,2.62A2.75,2.75,0,0,1,391.84,77Z"/><path class="cls-6" d="M315.91,38Q299.54,45.57,283,52.79c-5.5,2.43-11,4.79-16.52,7.19l-16.57,7.1-16.6,7c-5.55,2.31-11.08,4.64-16.64,6.91q-16.65,6.89-33.45,13.44,16.37-7.55,32.88-14.77c5.49-2.43,11-4.8,16.52-7.2l16.57-7.1,16.6-7c5.55-2.31,11.08-4.64,16.64-6.92Q299.11,44.58,315.91,38Z"/><path class="cls-6" d="M277.73,178.9c.39,5,.59,10.09.72,15.13.09,2.53.11,5.05.16,7.57l.05,7.57-.05,7.57c-.05,2.52-.07,5-.15,7.57-.14,5-.34,10.09-.73,15.13-.39-5-.59-10.09-.72-15.13-.09-2.53-.11-5.05-.16-7.57l-.05-7.57.05-7.57c0-2.52.07-5,.16-7.57C277.15,189,277.35,183.94,277.73,178.9Z"/><path class="cls-6" d="M277.73,239.44c2.48-.12,4.95-.07,7.4.05,1.23,0,2.46.16,3.68.24l3.67.33c2.45.25,4.88.58,7.31,1s4.85.86,7.25,1.5a73,73,0,0,1-7.4-.05q-3.69-.18-7.35-.57l-3.66-.44c-1.22-.18-2.43-.32-3.65-.54A72.82,72.82,0,0,1,277.73,239.44Z"/><path class="cls-6" d="M307,242.53c-.32-3.7-.46-7.4-.53-11.1-.05-1.85,0-3.7-.06-5.55l.05-5.54.14-5.55c.09-1.84.13-3.69.25-5.54.2-3.69.47-7.38.92-11.07.32,3.7.46,7.4.53,11.1.06,1.85,0,3.7.06,5.55l0,5.54-.15,5.54c-.08,1.85-.14,3.7-.25,5.54C307.76,235.15,307.49,238.84,307,242.53Z"/><path class="cls-6" d="M280.05,178.51a42.68,42.68,0,0,1,5.52-1.25c1.85-.32,3.71-.55,5.57-.74s3.73-.29,5.61-.32a43,43,0,0,1,5.66.19,42.68,42.68,0,0,1-5.52,1.25c-1.85.33-3.71.56-5.57.74s-3.74.29-5.61.32A43,43,0,0,1,280.05,178.51Z"/><path class="cls-6" d="M265,177a59,59,0,0,1,.91,6.44c.21,2.15.33,4.3.4,6.45s.07,4.31,0,6.47a57,57,0,0,1-.53,6.48,56.72,56.72,0,0,1-.92-6.44c-.21-2.15-.33-4.3-.4-6.45s-.07-4.31,0-6.47A54.42,54.42,0,0,1,265,177Z"/><path class="cls-6" d="M265.78,202.81a60.32,60.32,0,0,1-6.63.91c-2.22.22-4.43.33-6.65.4s-4.44.07-6.66,0a60.12,60.12,0,0,1-6.67-.53,60,60,0,0,1,6.63-.92c2.21-.21,4.43-.33,6.64-.4s4.44-.07,6.66,0A60.3,60.3,0,0,1,265.78,202.81Z"/><path class="cls-6" d="M255,179.67a18.14,18.14,0,0,1-3.39,1.11,31,31,0,0,1-3.45.58,29,29,0,0,1-3.49.19,17.21,17.21,0,0,1-3.55-.34,17.68,17.68,0,0,1,3.39-1.11,27.15,27.15,0,0,1,3.44-.58,29.21,29.21,0,0,1,3.5-.19A17.28,17.28,0,0,1,255,179.67Z"/><path class="cls-6" d="M239,185.45a19.1,19.1,0,0,1,.88,3.64,34.38,34.38,0,0,1,.34,3.65,32.31,32.31,0,0,1-.05,3.68,20,20,0,0,1-.59,3.69,19.85,19.85,0,0,1-.87-3.64,32,32,0,0,1-.35-3.65,34.57,34.57,0,0,1,.06-3.67A20.76,20.76,0,0,1,239,185.45Z"/><path class="cls-6" d="M233.77,182a33.42,33.42,0,0,1,.92,4.79c.2,1.61.33,3.21.39,4.82s.07,3.21,0,4.82a34.77,34.77,0,0,1-.54,4.85,33.42,33.42,0,0,1-.92-4.79c-.2-1.6-.33-3.2-.4-4.81s-.06-3.22,0-4.83A34.94,34.94,0,0,1,233.77,182Z"/><path class="cls-6" d="M234.54,201.26c-3,.45-6,.72-9,.92-1.51.12-3,.17-4.53.25l-4.53.15-4.53,0c-1.51,0-3,0-4.53-.06-3-.07-6.05-.21-9.08-.53,3-.46,6-.72,9.05-.92,1.5-.12,3-.17,4.52-.25l4.53-.15,4.54,0c1.51,0,3,0,4.53,0C228.49,200.81,231.51,200.94,234.54,201.26Z"/><path class="cls-6" d="M233.77,182c-3,.71-6,1.23-9,1.69-1.51.24-3,.42-4.54.63l-4.55.54-4.56.43c-1.52.11-3,.25-4.57.33-3,.18-6.11.3-9.18.24,3-.71,6-1.23,9-1.69,1.51-.24,3-.42,4.54-.63l4.55-.53,4.56-.44c1.52-.11,3-.25,4.57-.32C227.63,182,230.69,181.92,233.77,182Z"/><path class="cls-6" d="M431.22,161.16q.11,15.87-.15,31.74c-.06,5.29-.18,10.57-.28,15.86l-.38,15.86-.48,15.86c-.2,5.28-.36,10.57-.59,15.85q-.61,15.85-1.59,31.7-.12-15.87.14-31.73c.06-5.29.18-10.58.28-15.87l.38-15.86.49-15.86c.19-5.28.36-10.57.59-15.85Q430.25,177,431.22,161.16Z"/><path class="cls-6" d="M321.69,172.34c.45,5.77.7,11.54.9,17.32.11,2.88.16,5.77.24,8.65L323,207l0,8.66c0,2.89,0,5.78-.07,8.67-.08,5.77-.22,11.55-.55,17.33-.45-5.76-.71-11.53-.9-17.31-.11-2.88-.16-5.77-.24-8.66l-.13-8.66,0-8.66c0-2.89,0-5.78.07-8.67C321.22,183.9,321.37,178.12,321.69,172.34Z"/><path class="cls-6" d="M321.69,172.34a15.16,15.16,0,0,1,3.18-.34,24.68,24.68,0,0,1,6.17.77,14.52,14.52,0,0,1,3,1.11,13.94,13.94,0,0,1-3.18.34,23,23,0,0,1-3.11-.18,24.65,24.65,0,0,1-3.06-.59A14.74,14.74,0,0,1,321.69,172.34Z"/><path class="cls-6" d="M334,173.88a11.34,11.34,0,0,1,.63,2.73,18.89,18.89,0,0,1,.1,2.71,17.56,17.56,0,0,1-.29,2.69,11.27,11.27,0,0,1-.83,2.67A11.29,11.29,0,0,1,333,182a18.33,18.33,0,0,1,.2-5.4A11.34,11.34,0,0,1,334,173.88Z"/><path class="cls-6" d="M328.64,188.15q12.48-1.54,25-2.74c4.18-.43,8.35-.78,12.53-1.17l12.53-1.06,12.53-1c4.18-.28,8.36-.6,12.55-.86q12.54-.82,25.12-1.3-12.48,1.56-25,2.75c-4.18.43-8.35.78-12.53,1.17L378.84,185l-12.53,1c-4.18.29-8.36.61-12.55.86Q341.22,187.68,328.64,188.15Z"/><path class="cls-6" d="M373.76,208.59a31.11,31.11,0,0,1-4.57.54c-1.51.07-3,.07-4.54,0s-3-.2-4.52-.4a30,30,0,0,1-4.5-.92,31.13,31.13,0,0,1,4.56-.54c1.52-.07,3-.07,4.54,0s3,.19,4.53.39A30,30,0,0,1,373.76,208.59Z"/><path class="cls-6" d="M355.43,211.87a41.76,41.76,0,0,1,.59,5.42q.14,2.7.06,5.4t-.33,5.4a43.49,43.49,0,0,1-.87,5.37,39.94,39.94,0,0,1-.6-5.42q-.13-2.7-.06-5.4c0-1.8.16-3.6.34-5.39A41.55,41.55,0,0,1,355.43,211.87Z"/><path class="cls-6" d="M354.41,238.71a3,3,0,0,1,.78,1.1,3.22,3.22,0,0,1,.24,1.12,3.28,3.28,0,0,1-.15,1.15,3,3,0,0,1-.68,1.15,2.91,2.91,0,0,1-.78-1.1,3.37,3.37,0,0,1-.09-2.26A3.08,3.08,0,0,1,354.41,238.71Z"/><path class="cls-6" d="M372.64,240a70,70,0,0,1,.48,7.22c0,1.2,0,2.4,0,3.6l-.07,3.6c-.08,2.4-.24,4.79-.46,7.18a69.73,69.73,0,0,1-1,7.17,67.32,67.32,0,0,1-.48-7.22c-.05-2.4,0-4.8,0-7.2l.18-3.59c.09-1.2.15-2.4.28-3.59C371.89,244.76,372.18,242.36,372.64,240Z"/><path class="cls-6" d="M373.11,221.57a26.69,26.69,0,0,1,.62,4.3c.1,1.43.13,2.87.1,4.29s-.14,2.86-.31,4.29a25.67,25.67,0,0,1-.84,4.26,26.69,26.69,0,0,1-.62-4.3q-.15-2.15-.09-4.29c0-1.43.13-2.85.3-4.28A28,28,0,0,1,373.11,221.57Z"/><path class="cls-6" d="M373.76,208.59a4.73,4.73,0,0,1,.61,1.66,6.56,6.56,0,0,1,.09,1.65,6.33,6.33,0,0,1-.31,1.64,5.09,5.09,0,0,1-.84,1.61,4.76,4.76,0,0,1-.62-1.66,7,7,0,0,1-.09-1.65,6.72,6.72,0,0,1,.32-1.63A5,5,0,0,1,373.76,208.59Z"/><path class="cls-6" d="M376.08,218.36c4.1-.36,8.2-.54,12.29-.66,2.05-.07,4.1-.08,6.15-.12l6.15,0,6.14.08c2.05.06,4.1.09,6.15.19,4.09.16,8.19.38,12.28.79-4.1.36-8.2.54-12.3.66-2.05.08-4.09.08-6.14.12l-6.15,0-6.14-.09c-2.05-.06-4.09-.09-6.14-.18C384.27,219,380.18,218.77,376.08,218.36Z"/><path class="cls-6" d="M328.06,218.23a44.7,44.7,0,0,1,5.59-.7c1.87-.14,3.73-.19,5.59-.18s3.72.07,5.58.22a44.37,44.37,0,0,1,5.59.75,42.51,42.51,0,0,1-5.59.71c-1.86.14-3.73.18-5.59.18s-3.73-.08-5.59-.23A42.46,42.46,0,0,1,328.06,218.23Z"/><path class="cls-6" d="M373,238.54c4.24-.11,8.47,0,12.69.28,2.11.1,4.22.27,6.33.42l6.3.52,12.59,1.18c4.2.39,8.4.77,12.61,1.2a112.07,112.07,0,0,1-12.7.24c-2.11,0-4.22-.18-6.34-.29s-4.21-.31-6.32-.48l-6.31-.62c-2.09-.25-4.19-.46-6.29-.73C381.35,239.75,377.17,239.19,373,238.54Z"/><path class="cls-6" d="M327.87,236c2.2-.09,4.36-.14,6.53-.16s4.34,0,6.52.06,4.35.21,6.52.48a33.18,33.18,0,0,1,6.46,1.3c-2.2.08-4.36.13-6.54.15s-4.33,0-6.51-.07-4.35-.21-6.52-.48A34,34,0,0,1,327.87,236Z"/><path class="cls-6" d="M422.73,281.09c-4.36-.26-8.71-.68-13-1.17-2.17-.23-4.33-.53-6.49-.8l-6.48-.91-6.46-1c-2.15-.39-4.3-.75-6.44-1.19-4.28-.84-8.55-1.78-12.76-3,4.35.42,8.68,1,13,1.53,2.16.27,4.31.59,6.47.88l6.47.94,6.45,1c2.15.36,4.3.7,6.45,1.09C414.19,279.25,418.48,280.07,422.73,281.09Z"/><path class="cls-6" d="M396.28,137.59h-.11c0,1.67,0,3.34.1,5a63.67,63.67,0,0,0,.63,7,66.17,66.17,0,0,0,.82-7c.14-1.84.22-3.68.27-5.52A3.05,3.05,0,0,1,396.28,137.59Z"/><path class="cls-6" d="M396.9,149.59a17,17,0,0,1,3.47-.24,28.73,28.73,0,0,1,6.75,1,16.36,16.36,0,0,1,3.27,1.21,17.13,17.13,0,0,1-3.48.24,29.48,29.48,0,0,1-6.74-1A17,17,0,0,1,396.9,149.59Z"/><path class="cls-6" d="M424.28,135.32a26,26,0,0,1,.82,4.22c.17,1.42.27,2.83.3,4.24s0,2.83-.1,4.25a26.27,26.27,0,0,1-.64,4.26,26.34,26.34,0,0,1-.83-4.23c-.16-1.41-.26-2.82-.29-4.24s0-2.82.1-4.24A26.11,26.11,0,0,1,424.28,135.32Z"/><path class="cls-6" d="M414.89,136.06a2.83,2.83,0,0,1-1.69.88c0,.5,0,1,0,1.5a29.13,29.13,0,0,0,.35,3.47,17.89,17.89,0,0,0,.87,3.44,18,18,0,0,0,.59-3.51,28.73,28.73,0,0,0,.05-3.47C415.05,137.59,415,136.83,414.89,136.06Z"/><path class="cls-6" d="M327.48,170q13.2-2.37,26.46-4.38c4.42-.7,8.84-1.33,13.26-2l13.27-1.88L393.76,160c4.44-.56,8.86-1.16,13.3-1.68q13.31-1.65,26.66-2.95-13.2,2.37-26.46,4.39c-4.41.69-8.84,1.32-13.26,2l-13.27,1.88-13.29,1.78c-4.43.56-8.86,1.15-13.3,1.68Q340.84,168.73,327.48,170Z"/><path class="cls-6" d="M354.23,160.17c-2,.58-3.9,1.05-5.86,1.45s-3.94.75-5.93,1-4,.49-6,.59a32.46,32.46,0,0,1-6.07-.14c2-.49,3.93-.93,5.89-1.31s3.94-.71,5.93-1,4-.49,6-.61A38.31,38.31,0,0,1,354.23,160.17Z"/><path class="cls-6" d="M420.76,152c-5.13,1-10.28,1.83-15.43,2.6-2.58.39-5.16.73-7.74,1.09l-7.75,1-7.77.89c-2.59.26-5.18.56-7.77.78-5.19.51-10.38,1-15.6,1.25,5.12-1,10.26-1.91,15.42-2.69,2.57-.4,5.16-.72,7.74-1.09l7.75-1,7.76-.89c2.6-.26,5.19-.55,7.78-.78C410.34,152.7,415.54,152.27,420.76,152Z"/><path class="cls-6" d="M440.86,149.59a18.54,18.54,0,0,1-3.44,1.15,30,30,0,0,1-3.51.63,28,28,0,0,1-3.55.23,17.91,17.91,0,0,1-3.62-.29,18.58,18.58,0,0,1,3.44-1.16,31.57,31.57,0,0,1,7.06-.86A18.69,18.69,0,0,1,440.86,149.59Z"/><path class="cls-6" d="M245.72,233.27a7.47,7.47,0,0,1,.83,2.09,11.79,11.79,0,0,1,.3,2.11,10.87,10.87,0,0,1-.11,2.13,7.45,7.45,0,0,1-.63,2.16,7.47,7.47,0,0,1-.83-2.09,10.93,10.93,0,0,1-.29-2.11,11.7,11.7,0,0,1,.1-2.13A7.45,7.45,0,0,1,245.72,233.27Z"/><path class="cls-6" d="M245.72,233.27c-5.77.63-11.54,1.07-17.32,1.45-2.89.2-5.78.34-8.67.52l-8.68.41-8.67.31c-2.9.07-5.79.17-8.69.21-5.79.1-11.58.14-17.38,0,5.77-.63,11.54-1.08,17.32-1.45,2.89-.21,5.78-.35,8.67-.52l8.68-.41,8.68-.31c2.89-.07,5.78-.17,8.68-.21C234.13,233.17,239.92,233.13,245.72,233.27Z"/><path class="cls-6" d="M200.22,215.53a11.46,11.46,0,0,1,1.1,2.6,17.7,17.7,0,0,1,.59,2.67,19.07,19.07,0,0,1,.19,2.73,11.84,11.84,0,0,1-.34,2.8,11.43,11.43,0,0,1-1.11-2.59,18.06,18.06,0,0,1-.58-2.68,17.68,17.68,0,0,1-.19-2.72A11.48,11.48,0,0,1,200.22,215.53Z"/><path class="cls-6" d="M200.22,215.53c-4.05.39-8.1.59-12.15.73-2,.08-4,.1-6.07.15l-6.08.05-6.07-.05c-2,0-4-.06-6.08-.15-4.05-.14-8.09-.34-12.14-.73,4.05-.38,8.09-.59,12.14-.72,2-.09,4-.11,6.08-.16l6.07-.05,6.08.05c2,.06,4,.07,6.07.16C192.12,215,196.17,215.15,200.22,215.53Z"/><path class="cls-6" d="M454.36,157.3q-.44,17.38-1.2,34.76c-.24,5.79-.54,11.57-.81,17.36l-.91,17.36-1,17.36c-.37,5.78-.71,11.57-1.11,17.35q-1.15,17.34-2.65,34.67.42-17.39,1.2-34.75c.23-5.79.53-11.58.8-17.37l.91-17.36,1-17.35c.37-5.79.71-11.57,1.11-17.35Q452.87,174.63,454.36,157.3Z"/><path class="cls-6" d="M452.21,196.1c3.36-.34,6.73-.51,10.09-.6,1.68-.07,3.36-.07,5-.1h5l5,.11c1.68.07,3.36.11,5,.21,3.36.18,6.72.42,10.07.84-3.36.35-6.72.52-10.09.62-1.68.06-3.36.06-5,.09h-5l-5-.11c-1.68-.07-3.36-.1-5-.21C458.92,196.77,455.56,196.53,452.21,196.1Z"/><path class="cls-6" d="M456.48,170.41c2.9-.29,5.79-.4,8.69-.45,1.45,0,2.89,0,4.34,0l4.33.09,4.34.18c1.44.1,2.89.16,4.33.29,2.88.23,5.77.52,8.64,1-2.9.29-5.79.41-8.69.45-1.45,0-2.89,0-4.34,0l-4.33-.08-4.34-.19c-1.44-.1-2.88-.16-4.33-.29C462.24,171.18,459.35,170.89,456.48,170.41Z"/><path class="cls-6" d="M174.44,117.72l.19.91c.07.3.15.6.23.9a12.64,12.64,0,0,0,.67,1.71,6.27,6.27,0,0,0,1,1.49,3.17,3.17,0,0,0,1.38.92h0l0,0,5.1,2.33.26.12v.31c.22,5.95.41,11.89.53,17.84s.22,11.89.3,17.83l.06,8.92V180c0,6-.07,11.89-.19,17.84v.07l-.47,2.3-.06-.25,2.39,3.36c.8,1.12,1.57,2.26,2.36,3.39-.88-1-1.78-2.1-2.65-3.16L183,200.31l-.08-.1,0-.16.3-2.32v.07c-.25-6-.43-11.89-.58-17.83l-.19-8.92-.13-8.92c0-5.94-.11-11.89-.09-17.84s.05-11.89.15-17.83l.27.42-4.93-2.67.07,0a2.7,2.7,0,0,1-.92-.5,4.56,4.56,0,0,1-.69-.7,6.11,6.11,0,0,1-1-1.66,9.55,9.55,0,0,1-.54-1.8c-.05-.31-.11-.61-.15-.92Z"/><path class="cls-6" d="M332.52,162.82a13.35,13.35,0,0,1-1.44,2.14,23.14,23.14,0,0,1-1.68,1.89,21.55,21.55,0,0,1-1.87,1.7,13.26,13.26,0,0,1-2.12,1.46,13.3,13.3,0,0,1,1.43-2.14,25.18,25.18,0,0,1,1.68-1.89,23.43,23.43,0,0,1,1.88-1.7A13.47,13.47,0,0,1,332.52,162.82Z"/><path class="cls-6" d="M342.54,161.6a13.13,13.13,0,0,1-1.23,2.13,21,21,0,0,1-1.49,1.89,19.6,19.6,0,0,1-1.69,1.72,12.18,12.18,0,0,1-2,1.49,12.72,12.72,0,0,1,1.23-2.13,20.56,20.56,0,0,1,3.19-3.61A12.56,12.56,0,0,1,342.54,161.6Z"/><path class="cls-6" d="M356.86,159.85a10.34,10.34,0,0,1-.94,2,17.06,17.06,0,0,1-1.2,1.72,16.11,16.11,0,0,1-1.42,1.56,10.27,10.27,0,0,1-1.69,1.34,10.31,10.31,0,0,1,.93-1.95,16.08,16.08,0,0,1,1.21-1.72,17.41,17.41,0,0,1,1.41-1.56A10.25,10.25,0,0,1,356.86,159.85Z"/><path class="cls-6" d="M366.46,158.68a7.22,7.22,0,0,1-.51,1.71,10.63,10.63,0,0,1-.81,1.53,9.9,9.9,0,0,1-1,1.38,7,7,0,0,1-1.33,1.2,6.74,6.74,0,0,1,.51-1.72,11.67,11.67,0,0,1,1.84-2.91A6.93,6.93,0,0,1,366.46,158.68Z"/><path class="cls-6" d="M372.68,157.92a7,7,0,0,1-.39,1.8,13.44,13.44,0,0,1-.71,1.65,12.42,12.42,0,0,1-.94,1.52,8,8,0,0,1-1.26,1.36,7,7,0,0,1,.39-1.81,11.43,11.43,0,0,1,.71-1.64,12.16,12.16,0,0,1,.95-1.53A7.21,7.21,0,0,1,372.68,157.92Z"/><path class="cls-6" d="M380.6,157a5.64,5.64,0,0,1,0,1.64,9.8,9.8,0,0,1-.33,1.54,8.75,8.75,0,0,1-.59,1.46,5.44,5.44,0,0,1-.92,1.36,5.64,5.64,0,0,1,0-1.64,9.8,9.8,0,0,1,.33-1.54,9.69,9.69,0,0,1,.59-1.46A5.93,5.93,0,0,1,380.6,157Z"/><path class="cls-6" d="M389.28,155.89a5.35,5.35,0,0,1,.05,1.59,8.44,8.44,0,0,1-.28,1.5,8.13,8.13,0,0,1-.54,1.42,5.29,5.29,0,0,1-.88,1.33,5.73,5.73,0,0,1-.06-1.59,8.46,8.46,0,0,1,.29-1.5,8.13,8.13,0,0,1,.54-1.42A5.48,5.48,0,0,1,389.28,155.89Z"/><path class="cls-6" d="M397.1,154.93a4.2,4.2,0,0,1,.15,1.38,6.17,6.17,0,0,1-.18,1.29,7.19,7.19,0,0,1-.45,1.22,4.14,4.14,0,0,1-.79,1.13,4.14,4.14,0,0,1-.16-1.37,6.92,6.92,0,0,1,.19-1.29,6.61,6.61,0,0,1,.45-1.22A4.18,4.18,0,0,1,397.1,154.93Z"/><path class="cls-6" d="M404.31,154.67a3.88,3.88,0,0,1,.32,1.28,5.59,5.59,0,0,1,0,1.23,5.15,5.15,0,0,1-.3,1.2,3.67,3.67,0,0,1-.65,1.14,3.86,3.86,0,0,1-.31-1.28,5.63,5.63,0,0,1,0-1.23,6.29,6.29,0,0,1,.3-1.19A4.16,4.16,0,0,1,404.31,154.67Z"/><path class="cls-6" d="M412.67,153a4.6,4.6,0,0,1,.26,1.42,6.81,6.81,0,0,1-.08,1.36,7.55,7.55,0,0,1-.35,1.32,4.56,4.56,0,0,1-.7,1.27,4.62,4.62,0,0,1-.27-1.42,7.65,7.65,0,0,1,.09-1.36,6.77,6.77,0,0,1,.35-1.32A4.56,4.56,0,0,1,412.67,153Z"/><path class="cls-6" d="M420,152.14a4.24,4.24,0,0,1,.36,1.29,5.81,5.81,0,0,1,0,1.25,6,6,0,0,1-.26,1.23,4.08,4.08,0,0,1-.61,1.19,3.8,3.8,0,0,1-.36-1.29,5.9,5.9,0,0,1,0-1.26,5.77,5.77,0,0,1,.26-1.22A3.85,3.85,0,0,1,420,152.14Z"/><path class="cls-6" d="M427.52,151.22a4.18,4.18,0,0,1,.28,1.35,6.26,6.26,0,0,1-.06,1.3,6.16,6.16,0,0,1-.33,1.26,4.09,4.09,0,0,1-.68,1.21,4.23,4.23,0,0,1-.28-1.36,6.26,6.26,0,0,1,.06-1.3,7.32,7.32,0,0,1,.33-1.26A4.28,4.28,0,0,1,427.52,151.22Z"/><path class="cls-6" d="M328.73,188.15a63.89,63.89,0,0,1,.67,6.73c.11,2.25.18,4.49.09,6.74s-.4,4.49-.44,6.73a63,63,0,0,0,.25,6.73c.19,2.25.34,4.49.4,6.73s.16,4.49.16,6.74A117.21,117.21,0,0,1,329,242h-.18a117,117,0,0,1-1-13.45c0-2.25,0-4.49.08-6.74s.16-4.49.33-6.74a65.75,65.75,0,0,0,.17-6.73c-.07-2.25-.38-4.49-.51-6.73s-.08-4.49,0-6.74a66.64,66.64,0,0,1,.59-6.74Z"/></g><path class="cls-7" d="M472.16,135.65a1.8,1.8,0,0,1-.78-1.6c-.61-1.26-1.21-2.53-1.85-3.77s-1.24-2.38-1.91-3.54c-.23-.41-2.52-4-1.35-2.34l-.6-.9a2,2,0,0,1-.89,0c-.74-.24-.86-.91-.8-1.58,0-.35.07-.7.1-1-.77-1.34-1.46-2.67-2.13-4.09a42,42,0,0,1-.63,5.34c-.09.5-.63,1.34-.91,1.32-3.11-.24-3.4,4-6.68,3.71-.33-1.49-.62-3.13-1.06-4.73s-.07-2.64,1.46-3a3.09,3.09,0,0,0,1.9-4.67,2.72,2.72,0,0,1,.53-3.83c.08-.07.14-.14.22-.22a20.3,20.3,0,0,1-3.57-4.69c-.21-.47-.39-1-.58-1.42-.37,1.2.2,2.38,1.78,3.69s.2,2.43-.09,3.63a1.86,1.86,0,0,1-2.52,1.5c-1.34-.34-1.43-1.58-1.49-2.66-.21-3.51-2-6.65-2.4-10.11-.13-1-.82-1.07-1.64-.51-1.43,1-2.5-.84-2.43-1.1a26.77,26.77,0,0,0,.59-4.5c-1.31-1.4-2.61-2.8-3.88-4.21-1.7-1.91-3.25-3.94-5.06-5.74-1-1-2-1.84-3-2.76l-.65-.6a7.24,7.24,0,0,1-.81-.6c-.07.21-.14.43-.24.66a5.49,5.49,0,0,0-.54-1.3,35.57,35.57,0,0,1-5.09-5.17c-.37-.44-.76-.88-1.15-1.31a9.94,9.94,0,0,1-3.13-1.95c-.61.78-1.09.73-1.77-.33-1.35-2.1-2.2-.8-2.9.58-.51,1-.21,2.47-1.83,3,0-1.91,2-4.16-.71-5.39-1.1-.5-2.42-1.72-3.77-.28s.11,2.57.44,4.19c-2.44-.55-1.85-2.68-2.19-3.92-.26-.91-.52-1.91-.72-2.88s-.85-1.33-1.85-1-1.81.82-1.35,2c.71,1.76,0,2.14-1.6,2-.92-.08-2.19-1.32-2.65.53-.35,1.45,1.6,4,3,3.65,1.26-.3,1.71-.19,1.87,1a2.55,2.55,0,0,1-1.45,2.5c-1.11.73-1.43-.25-1.76-1-.52-1.23-2-1.65-2.27-3.27-.24-1.32-1.92-1-2.84-.42s-1.75,1.56-.42,2.71a10.12,10.12,0,0,1,1.11,1.24,1.55,1.55,0,0,1,.12,1.58c-.25.76-.89.49-1.4.45s-1.1-.19-1.65-.25c-.82-.09-1.71-.34-2.31.48a2.11,2.11,0,0,0,.24,2.58c.62.92,1.3,1.81,2,2.69,1.4,1.81.92,3.21-.9,4.33a2.53,2.53,0,0,1-.69.24c-1.28-3.13-2.34-.69-3.46.12-.32.24-.79.4-.92,0-1.09-3.3-2.42-.55-3.54-.08-.71.29-1.22,1-1.85,1.61-1.07-.72.37-2.85-1.2-2.62s-3.57-.74-5.1.69c-1,1-.17,2.94-1.94,3.33.21.7.63.62,1,.68,3,.54,3.8,2.23,2.18,4.91-.73,1.2-1.06,2.56-1.71,3.75-.82,1.47.28,2.15,1,2.81,1.07,1,1.57-.17,2.09-.89s1-.83,2.22-.46c-2.09,1-.8,2.78-1.45,4.08-.4.8-4.29,3.85-5.1,3.65s-.6-1-.7-1.61c-.28-1.54-1-1.69-2.06-.73a2.47,2.47,0,0,1-1.67.88c-1.38,0-2.91.12-2.47,2,.39,1.66,1.22,3.68,3.22,3.55s3.18.44,3.82,2.35c.22.67.61,1.53,1.4,1.61,1.17.12.73-1.06,1-1.64a3.09,3.09,0,0,1,1.92-1.45c1.15,2.13,1.95,4.31,3.88,6.13,1.32,1.24,1.37,3.85,3.72,4.61.5.16.57,1.34,1.45.81a1.59,1.59,0,0,0,.63-2c-1.46-2.67.91-4.12,1.94-6.07-1.82,2.74,1.31,5.54-.5,8.48-1,1.56-.14,3.52,2,4.35,1.12.43,2.59.64,2.34,2.48a.91.91,0,0,0,.89.91c1,.1,1.14-.73,1.51-1.36.56-1,.53-2.9,1.45-2.79,2.06.23,4.52-1.41,5.39-.85,2.33,1.52,2.46.44,2.72-1.51,1.28.59,2.38,1,2.06,2.72a1.75,1.75,0,0,0,1.09,1.8,1.44,1.44,0,0,0,1.92-.69c1.35-2.55,1.54,1.51,3,.49.8-.56-.57-2.8,2.08-2.08,1.38.37,3.68-1.33,5.11-2.85.67-.73,1.11-1.72,2.6-2-.82,1.7,1.09,3.66-1.16,5-.51.31-.12,1,.06,1.55.86,2.55,3.4,2.17,5.25,2.89.75.29,1.65-.35,2.07-1.43.78-2,.83-3.78-1.12-5.17a4.86,4.86,0,0,1-.56-.56,1.91,1.91,0,0,1,2.09,1.19c.34.58.91,1.37,1.44,1.1,2.72-1.38,3,1.08,3.94,2.41,3.38,4.86,5.39,10.42,7.88,15.73a13.44,13.44,0,0,1,1.55-.1,12.33,12.33,0,0,1,1.5.09,80,80,0,0,1-5.59-13.19c2.07,1.63,3,4,5.52,3.54.16,0,.36.4.58.57,1,.8,1.85,2.91,3.3.42.23-.4.58-.06.63.11.55,1.61,2.51,2.23,2.82,4,.58,3.32,1.2,6.64,1.68,10a14.61,14.61,0,0,1,2.66,8,11.77,11.77,0,0,1-.29,2.86,16,16,0,0,1,.29,2.5,11.93,11.93,0,0,1-.08,1.59l3.82,0a2.35,2.35,0,0,0,0-.26c-.29-4.39.84-8.36,4.95-11a12.19,12.19,0,0,0,4.43-5.85c1-2.34,2.8-4.32,4.3-6.43.24-.34.63-.88,1-.79a41.38,41.38,0,0,1-4.23-6.44C472.92,137.2,472.53,136.43,472.16,135.65ZM426.58,95.92c2,.13,1.39,2.15,1.36,3.72-.47.88.77,3.14-1.59,2.75A3,3,0,0,1,424,99C424.25,97.56,425.42,95.84,426.58,95.92Zm-2.69-17.07c.24-1.8-1.12-2.58-1.65-4.21C425.87,76.25,425.93,76.39,423.89,78.85Zm1.3,6.59c.19,1.76-2.49.84-3.33,2.23-.09-1.07-.19-2.15-.34-4C423,85,425,84.11,425.19,85.44Zm-18.95-4.15c.3-1.73,1.07-2.12,2-.7,1.12,1.7,3.83-.49,4.37,2a4.37,4.37,0,0,1,.94-.57c2.37-.82,4.89-.11,5.57,1.9-3.33-2-7.32,1.37-10.57-1.9.38,2-.21,3.68.69,5.22C407.74,85.51,405.77,84.07,406.24,81.29ZM404,85.69c1.05,1.4-.76,2.87.25,4.23C401.67,89.14,401.67,89.14,404,85.69Zm-.29,9c2.69.63,2.68.63,4.29,3,.45.65.66,1.44,1.86.64,2.57-1.72,5.79.28,5.86,3.91-1.53-1.61-3.79.07-4.34-.46-2.79-2.69-4-.93-5.3,1.6-1.46-1.82-2.52-3.73-5.24-4.38C403.6,98.29,405.3,97.46,403.73,94.69Zm-6.56-2c.24,1.25,1,2.16.17,3.16-.55.64-.61,1.09.24,1.44-2.41.54-3.33-1.61-5.1-2.75C394.88,96,396.3,95.42,397.17,92.7Zm-5.06,9.23a7.78,7.78,0,0,1,5.47-4.63c.16,1.54,2.87.52,2.37,1.88-.29.79-2.32.95-3.58,1.36a6.37,6.37,0,0,1-1.09.14c-1.25.16-1.47.83-1.06,1.94.19.51,1.25,1,.39,1.54a1.31,1.31,0,0,1-1.95-.19C392.17,103.32,391.6,103,392.11,101.93Zm13.81,20.61a3.44,3.44,0,0,1,.62-4.58c1.21-1.24,2.79.49,4.3.73A14.06,14.06,0,0,0,405.92,122.54Zm7.71,2.79c-.49-.51-1.43-1.09-1.36-1.51a1.8,1.8,0,0,1,1.44-1.32c1.7-.13,2,.66,2.15,1.5C416.13,126.08,413.19,122.87,413.63,125.33ZM411,109.58c-1.1,2.76.14,4.91,1.42,7.3a13.74,13.74,0,0,1-4.22-.73c-3.42-1-6.28-3.21-9.64-4.28-.8-.25-2-1.15-2.42-.08s.82,1.73,1.8,2a9.36,9.36,0,0,1,4.63,2.28c-2.53-.63-3.1,1.26-3.82,2.76-.31.62.77,2.07-1,1.74-1.61-.3-.55-1.55-.47-2.25.23-1.94.4-3.54-2-4.44-1.11-.42-2.88-.61-3.19-1.89-.5-2.06,1.93-1.3,2.71-2.24a7,7,0,0,0,.69-.86c.41-.67.86-.6,1.61-.49,3,.46,6.07-.31,8.89,1.45.64.4,1.8-.24,2.52-.86a12.37,12.37,0,0,0,3.79-4.26c.72,1.18,1,2.81,2,2.45,2.13-.74,1.95.95,2.75,1.89,2.79,3.29,1.88,7.51,3,11.36C418.21,115.77,411.87,115.15,411,109.58Zm13.34,2.07a4.57,4.57,0,0,0-1.63-.16c-1.59-.06-2.34-.71-2.17-2.46.11-1,.58-2.46-.39-3.18-3.37-2.48-3.15-5.63-2-9.13,1.46,3.89,2.86,7.63,4.27,11.36.41,1.09,1.57.61,2.34,1s.93-.63,1.1-1.29c.29-1.13.65-2.23,1-3.35a17.39,17.39,0,0,1,.58,5C427.39,111.25,426.8,112.75,424.37,111.65Zm4.07,8.27c-.45-1-2.71.45-2.65-1.76,0-.7.23-1.33,1.18-.86s2.76.34,2.95,2C430,120,429.26,120.07,428.44,119.92Zm1.28-24.14c0-.9.43-1.8.49-2.71.13-2.21-.18-4.7,3.38-2.59.86.51,2.43-.61,2.8,1.47.21,1.18,1.28,2.17,1.22,3.59a25.44,25.44,0,0,0,.22,3.59,1.35,1.35,0,0,0,.86,1.32c.68.21.89-.4,1.23-.85s.07-1.52,1.09-1.21a1.55,1.55,0,0,1,.95,2.07,55.44,55.44,0,0,0-3,9.42c-1.35-2.71-2.3-4.61-3.24-6.51l-2.79-5.65c-.2,3.56,1.15,6.56,2.86,10-1.74-.87-3.49-.94-2.91-3.24a1.46,1.46,0,0,0-.93-1.58C428.36,101.39,429.74,98.34,429.72,95.78ZM439.66,133c-1.15-2.59-3.6-4.07-1.63-7.26,1.14-1.84-1.14-.51-1.81-.88.16-1,.31-2,.48-2.95.19-1.2.5-2.39-.95-3.14-2.25-1.17-2.77-4-5.24-5,5.89,1.3,8.78,4.77,8.95,10.31,0,1,.38,2,.33,3C439.69,128.84,440.71,130.68,439.66,133Zm9.62-1.7c-.51.54,1.48,1.78-.81,1.8-1.27,0-2.47.54-3.88-.07a1.7,1.7,0,0,0-2.54,1.21,42.47,42.47,0,0,1-1.25-11c0-.72-.11-1.44.59-2,1.91-1.59,4.83-.92,6.56-2.93a1.45,1.45,0,0,1,.86.51c1.32,3.37,1.85,6.94,2.72,10.43C452,131.25,450,130.52,449.28,131.26Zm12.29,17.29c-.23,3.79-.69,7.54-.63,11.36,0,2.21.16,4.6-.91,6.77.1-7.51-1.1-14.84-2.47-22.18C461.85,144.55,461.83,144.55,461.57,148.55Zm5.14-18.31c1-.28,1.39.9,1.74,1.75a4.37,4.37,0,0,1,.36,3.38c-2.39,0-2.83-1.16-2.11-3.15C466.92,131.6,465.29,130.65,466.71,130.24ZM463.56,157c-.39-3.95.56-7.57.6-11.23,0-.18,0-.49.13-.51,2.79-.7,2.4-3.32,3.15-5.23.33-.81.74-1.19,1.31-.42,1.81,2.43.36,5.88,2.49,8.25C468.92,151,467.54,154.85,463.56,157Zm11.34-15.2c.48,1.68-1,2.39-2,3.4.12-1.4-1.37-2.85.11-4A1.39,1.39,0,0,1,474.9,141.78Z"/><path class="cls-7" d="M485.09,154.83a11,11,0,0,0-.45,1.61,5.8,5.8,0,0,1-1-3.73c0-.33-.12-.73-.15-1.09-.32-.47-.54-.8-.16-.37-1.1-1.3-2.21-2.57-3.3-3.85a4.22,4.22,0,0,1,.74,2.07c.46,6.51,1.82,12.93,2,19.47l2.57.1c0-1.06,0-2.11.1-3.16a35.41,35.41,0,0,1,1.4-7.48,30,30,0,0,1-1.41-2.84C485.3,155.32,485.2,155.07,485.09,154.83Z"/><circle class="cls-8" cx="259.88" cy="259.88" r="252.9"/><text class="cls-9" transform="translate(49.13 248.36)">La</text><text class="cls-10" transform="translate(39.94 317.42)">ESQUI<tspan class="cls-11" x="270.89" y="0">N</tspan><tspan x="337.22" y="0">A</tspan></text><text class="cls-12" transform="translate(53.64 368.24)">d<tspan class="cls-13" x="29.95" y="0">el</tspan></text><path class="cls-6" d="M159.47,397.49a14.93,14.93,0,0,1-4.89-.52c-.82-.35-1.23-.77-1.23-1.27V338.77c0-.69.5-1.36,1.51-2a14.32,14.32,0,0,1,4.14-1.69,44.16,44.16,0,0,1,6.16-1.13,62.92,62.92,0,0,1,7.67-.43A37,37,0,0,1,184,335.06a24.19,24.19,0,0,1,8.37,4.42,18.92,18.92,0,0,1,5.27,7,23.28,23.28,0,0,1,1.84,9.46,27.8,27.8,0,0,1-2.12,11.29,22.38,22.38,0,0,1-5.64,7.91,23.17,23.17,0,0,1-8.14,4.61,30.89,30.89,0,0,1-9.6,1.5c-1.19,0-2.29-.05-3.29-.14s-1.89-.2-2.64-.33-1.69-.38-2.44-.56V395.7c0,.5-.41.92-1.23,1.27A14.93,14.93,0,0,1,159.47,397.49Zm6.12-29.74a2.81,2.81,0,0,0,1.74,2.4q1.74,1,6.16,1a12.35,12.35,0,0,0,9.27-3.53q3.44-3.53,3.43-11.15,0-6.87-3.39-9.88t-9.88-3a10.7,10.7,0,0,0-5.5,1.13,3.13,3.13,0,0,0-1.83,2.54Z"/><path class="cls-6" d="M218.28,397.49a15,15,0,0,1-4.9-.52c-.81-.35-1.22-.77-1.22-1.27v-57c0-.69.5-1.35,1.51-2a15.65,15.65,0,0,1,4.14-1.64,44.16,44.16,0,0,1,6.16-1.13,62.92,62.92,0,0,1,7.67-.43q12.42,0,19.52,5.27t7.11,14.87a17.92,17.92,0,0,1-2.22,9.17,26.9,26.9,0,0,1-4.84,6.26,26.25,26.25,0,0,1-7,4.7,8.43,8.43,0,0,1,3.19,3.16c1.2,1.72,2.51,3.54,4,5.45a39.93,39.93,0,0,0,4.61,5.18,7.36,7.36,0,0,0,5.08,2.3c.31,0,.69,0,1.13,0s.81-.05,1.13-.05c.75,0,1.13.35,1.13,1a4.12,4.12,0,0,1-1,2.26,11.53,11.53,0,0,1-2.49,2.5,14.69,14.69,0,0,1-3.62,2,12,12,0,0,1-4.33.8,12.46,12.46,0,0,1-6.4-1.55,17.93,17.93,0,0,1-4.56-3.81,24.09,24.09,0,0,1-3.29-5q-1.36-2.73-2.69-5a22.79,22.79,0,0,0-2.72-3.82,4.45,4.45,0,0,0-3.39-1.55H225.8a1.25,1.25,0,0,0-1.41,1.41V395.7c0,.5-.41.92-1.22,1.27A15,15,0,0,1,218.28,397.49Zm6.11-32.84q0,2.82,5.55,2.82a24.55,24.55,0,0,0,5.51-.61,13.2,13.2,0,0,0,4.8-2.12,11.09,11.09,0,0,0,3.43-4.09,14.37,14.37,0,0,0,1.32-6.54,11.23,11.23,0,0,0-1-5.13,8.68,8.68,0,0,0-2.77-3.24,11.31,11.31,0,0,0-3.95-1.75,20.32,20.32,0,0,0-4.57-.51,22.23,22.23,0,0,0-6,.66c-1.54.44-2.31,1.12-2.31,2.07Z"/><circle class="cls-6" cx="299.62" cy="368.45" r="33.29"/><path class="cls-14" d="M279.61,343.36A32.15,32.15,0,0,1,307,337.1a6.56,6.56,0,0,0-5.39,2.25,2,2,0,0,1-1.31.52,18.33,18.33,0,0,0-10.78,3,1.88,1.88,0,0,1-1.38.15A11.64,11.64,0,0,0,279.61,343.36Zm-5.42,18.32a1.74,1.74,0,0,0-.18-1.36,10.31,10.31,0,0,1-1.51-9,32.68,32.68,0,0,0-3.18,6.69,32.06,32.06,0,0,0,1,23.35,10.09,10.09,0,0,1,2.5-7,1.9,1.9,0,0,0,.38-1.34A22,22,0,0,1,274.19,361.68Zm47.2-13.75a2.59,2.59,0,0,0,.56,1.34,23.45,23.45,0,0,1,5.73,9.3,2.28,2.28,0,0,0,.91,1.08,7.91,7.91,0,0,1,3.07,4.54A32.25,32.25,0,0,0,318,341.94,9.09,9.09,0,0,1,321.39,347.93Zm5.34,33.27a2.44,2.44,0,0,0-1,1.05c-1.68,4-3.32,6.31-6.34,8.5a3,3,0,0,0-.89,1.17,12,12,0,0,1-3.73,5,32,32,0,0,0,15.42-18c.2-.59.38-1.18.55-1.77A8.56,8.56,0,0,1,326.73,381.2Zm-29.46,16.71a1.62,1.62,0,0,0-1.07-.82,23.19,23.19,0,0,1-10.1-4,2.11,2.11,0,0,0-1.39-.26,10.45,10.45,0,0,1-8-1.87A32.23,32.23,0,0,0,300,400.63,5.62,5.62,0,0,1,297.27,397.91Zm11.49-39.62a57.79,57.79,0,0,1,5.95,10.35,1.51,1.51,0,0,0,1.23.85l7.8.27A1.59,1.59,0,0,0,325,369a21.47,21.47,0,0,0,2.73-8.09,4.3,4.3,0,0,0-.2-1.58A27.76,27.76,0,0,0,321.32,349a3.64,3.64,0,0,0-1.34-.85,16.82,16.82,0,0,0-5.26-.88,15.42,15.42,0,0,0-2.53.21,1.34,1.34,0,0,0-1,1.05,34.8,34.8,0,0,1-2.54,8.22A1.63,1.63,0,0,0,308.76,358.29Zm-26.08,22.58h0a1.92,1.92,0,0,0,.89-.21l8.4-4.78a1.76,1.76,0,0,0,.79-1.31,118.92,118.92,0,0,1,1.07-12.3,1.69,1.69,0,0,0-.56-1.42l-7.65-6.19a1.63,1.63,0,0,0-1-.33,1.26,1.26,0,0,0-.49.09,25.82,25.82,0,0,0-8.64,5.68,3.56,3.56,0,0,0-.83,1.35,25.39,25.39,0,0,0-1.08,12,3.61,3.61,0,0,0,.68,1.44,21.67,21.67,0,0,0,7.78,5.86A1.6,1.6,0,0,0,282.68,380.87Zm36,10a23,23,0,0,0,7.05-9.39,4.38,4.38,0,0,0,.31-1.56,34,34,0,0,0-1.24-8.59,1.3,1.3,0,0,0-1.16-.9l-7.76-.27a1.66,1.66,0,0,0-1.31.71,64.9,64.9,0,0,1-7.52,9.33,1.88,1.88,0,0,0-.44,1.47l1.53,8.44a1.59,1.59,0,0,0,1,1.14,16,16,0,0,0,4.72.75,13.9,13.9,0,0,0,3.4-.43A4.88,4.88,0,0,0,318.65,390.86Zm-12.72-9a1.47,1.47,0,0,0-1-1.09,43.43,43.43,0,0,1-11.1-4.3,1.65,1.65,0,0,0-1.52,0L284,381.21a1.58,1.58,0,0,0-.75,1.32,28.9,28.9,0,0,0,1.81,8.81,3.1,3.1,0,0,0,1,1.25,27.57,27.57,0,0,0,10.74,4.21,4,4,0,0,0,.65.05,3.71,3.71,0,0,0,.94-.1,16.92,16.92,0,0,0,8.74-5,2,2,0,0,0,.4-1.5Zm-5-41.64h-.58a21.53,21.53,0,0,0-10.81,3.08,3.46,3.46,0,0,0-1.12,1.13,25,25,0,0,0-2.92,8.29,1.65,1.65,0,0,0,.55,1.42l7.64,6.18a1.53,1.53,0,0,0,.94.3,1.38,1.38,0,0,0,.55-.1,46.82,46.82,0,0,1,11.6-3.09,1.72,1.72,0,0,0,1.22-.92,35.12,35.12,0,0,0,2.53-8.17,2.11,2.11,0,0,0-.38-1.52,22.83,22.83,0,0,0-7.87-6.22A4.19,4.19,0,0,0,300.92,340.22Z"/><path class="cls-6" d="M355.84,360.32a1.25,1.25,0,0,0,1.41,1.41h17.31a1.6,1.6,0,0,1,1.32.85c.38.56.56,2,.56,4.33s-.18,3.76-.56,4.32a1.6,1.6,0,0,1-1.32.85H357.25a1.25,1.25,0,0,0-1.41,1.41V395.6c0,.51-.38.94-1.13,1.32s-2.42.57-5,.57-4.31-.19-5-.57-1.08-.81-1.08-1.32V337.08a2.33,2.33,0,0,1,2.63-2.64h31.24a4.18,4.18,0,0,1,4.28,2.83q1.08,2.82,1.08,8.84c0,.88-.37,1.32-1.13,1.32a6.07,6.07,0,0,1-1.93-.42,28.16,28.16,0,0,0-3.24-.9q-2.07-.47-5.23-.89a61.74,61.74,0,0,0-7.95-.43h-6.11a1.25,1.25,0,0,0-1.41,1.42Z"/><path class="cls-6" d="M394.6,394.85V337.08a2.33,2.33,0,0,1,2.64-2.64h32.08a4.18,4.18,0,0,1,4.28,2.83q1.08,2.82,1.08,8.84c0,.88-.37,1.32-1.12,1.32a4,4,0,0,1-1.51-.42,17.44,17.44,0,0,0-2.87-.9,50.34,50.34,0,0,0-5.27-.89,72.25,72.25,0,0,0-8.7-.43h-7.34a1.25,1.25,0,0,0-1.41,1.42V359.1a1.25,1.25,0,0,0,1.41,1.41h17.69q.75,0,1.32,1c.37.65.56,2.14.56,4.46s-.19,3.82-.56,4.47-.82,1-1.32,1H407.87a1.25,1.25,0,0,0-1.41,1.41v12.89a1.25,1.25,0,0,0,1.41,1.42H418a72,72,0,0,0,8.7-.43,49.88,49.88,0,0,0,5.27-.89,17.12,17.12,0,0,0,2.87-.9,4,4,0,0,1,1.51-.42c.75,0,1.13.44,1.13,1.32q0,6-1.08,8.84a4.19,4.19,0,0,1-4.29,2.83h-34.9A2.33,2.33,0,0,1,394.6,394.85Z"/><g class="cls-15"><rect class="cls-16" x="51.45" y="424.23" width="425.07" height="55.64"/></g><path class="cls-3" d="M164.69,466a15.29,15.29,0,0,1-5.48,1.07,9.38,9.38,0,0,1-7.33-3c-2.24-2.39-3.75-6.66-3.72-12.33.05-12.06,6.22-16.17,11.66-16.17a10,10,0,0,1,4.43.87l-.79,3.06a7.46,7.46,0,0,0-3.57-.76c-3.86,0-8.06,3.1-8.06,12.68S155.46,464,159.2,464a5.09,5.09,0,0,0,2.16-.35V453.57h-4v-2.93h7.31Z"/><path class="cls-3" d="M176,457.52l-2,9.29h-3.42l7.08-31h3.92l6.87,31h-3.49l-2-9.29Zm6.39-2.83-1.62-7.88c-.45-2.19-.87-4.74-1.24-7.06h-.16c-.35,2.35-.81,5-1.25,7.1l-1.62,7.84Z"/><path class="cls-3" d="M195,436.3a19.22,19.22,0,0,1,5.09-.59c3.05,0,5.35.64,7,2.21a9.08,9.08,0,0,1-2.79,14V452c2.28.7,3.48,2.89,4.16,7a44.48,44.48,0,0,0,1.78,7.83h-3.62a43.21,43.21,0,0,1-1.64-7.66c-.69-4.25-2-5.83-5-5.83h-1.4v13.49H195Zm3.51,14.28H200c3.35,0,5.63-2.49,5.63-6.18s-1.45-5.82-5.27-5.85a7.09,7.09,0,0,0-1.86.19Z"/><path class="cls-3" d="M220.52,457.52l-2.05,9.29H215l7.09-31H226l6.88,31h-3.49l-2-9.29Zm6.38-2.83-1.61-7.88c-.46-2.19-.87-4.74-1.24-7.06h-.16c-.35,2.35-.81,5-1.25,7.1L221,454.69Z"/><path class="cls-3" d="M253.87,466a15.29,15.29,0,0,1-5.48,1.07,9.38,9.38,0,0,1-7.33-3c-2.24-2.39-3.75-6.66-3.72-12.33,0-12.06,6.22-16.17,11.66-16.17a10,10,0,0,1,4.43.87l-.79,3.06a7.46,7.46,0,0,0-3.57-.76c-3.86,0-8.06,3.1-8.06,12.68S244.64,464,248.38,464a5.09,5.09,0,0,0,2.16-.35V453.57h-4v-2.93h7.31Z"/><path class="cls-3" d="M272.72,452.1H265v11.64h8.83v3.07H261.45v-31h11.78v3.08H265v10.19h7.75Z"/><path class="cls-3" d="M290.44,435.84h11.79v3.08H294v10.85h7.72v3H294v14.05h-3.52Z"/><path class="cls-3" d="M325.28,451.12c0,11.59-4,16.06-9,16.06-5.15,0-8.59-5.48-8.59-15.88s3.69-15.82,9.1-15.82S325.28,441.22,325.28,451.12Zm-13.88.21c0,6.37,1.23,12.74,5.18,12.74s5-6.76,5-12.84c0-5.78-1.06-12.65-5.08-12.65S311.4,445,311.4,451.33Z"/><path class="cls-3" d="M348.53,451.12c0,11.59-4,16.06-9,16.06S331,461.7,331,451.3s3.69-15.82,9.09-15.82S348.53,441.22,348.53,451.12Zm-13.88.21c0,6.37,1.23,12.74,5.18,12.74s5-6.76,5-12.84c0-5.78-1.06-12.65-5.08-12.65S334.65,445,334.65,451.33Z"/><path class="cls-3" d="M355.54,436.3a16.68,16.68,0,0,1,4.75-.59c3.25,0,5.57.8,7.26,2.33,2.41,2.07,4.18,6.08,4.18,12.54,0,7.09-1.72,10.94-3.71,13.08s-5,3.33-8.53,3.33a22.53,22.53,0,0,1-3.95-.3Zm3.51,27.64a7.89,7.89,0,0,0,1.35.09c3.9,0,7.67-2.82,7.67-13.35,0-7.8-2.39-12.08-7.36-12.08a8,8,0,0,0-1.66.17Z"/><path class="cls-17" d="M259.88,7C120.21,7,7,120.21,7,259.88s113.23,252.9,252.9,252.9,252.9-113.23,252.9-252.9S399.55,7,259.88,7Zm0,499C124,506,13.78,395.8,13.78,259.88S124,13.78,259.88,13.78,506,124,506,259.88,395.8,506,259.88,506Z"/><circle class="cls-1" cx="259.88" cy="259.88" r="252.9"/></g></g></g></svg>